<mxfile host="app.diagrams.net" modified="2023-05-09T08:17:52.298Z" agent="Mozilla/5.0 (Macintosh; Intel Mac OS X 10_15_7) AppleWebKit/537.36 (KHTML, like Gecko) Chrome/113.0.0.0 Safari/537.36" version="21.2.9" etag="jT2skCGOxXDr_IkLEbz5" type="github">
  <diagram name="第 1 页" id="w9UWypJBsIh6wjAWGU5-">
    <mxGraphModel>
      <root>
        <mxCell id="0" />
        <mxCell id="1" parent="0" />
      </root>
    </mxGraphModel>
  </diagram>
</mxfile>
